<svg width="166" height="234" viewBox="0 0 166 234" fill="none" xmlns="http://www.w3.org/2000/svg">
<path d="M18.256 201.77L20.776 199.106V210.284L19.048 208.88H29.902V213.2H19.048L20.776 211.688V224H15.196V197.45H31.504V201.77H18.256ZM35.5757 224V197.45H41.1737V222.326L38.6537 219.446H51.0557V224H35.5757ZM64.0585 224.432C62.4025 224.432 60.8545 224.132 59.4145 223.532C57.9745 222.932 56.7085 222.05 55.6165 220.886C54.5245 219.722 53.6665 218.288 53.0425 216.584C52.4185 214.868 52.1065 212.906 52.1065 210.698C52.1065 208.478 52.4125 206.522 53.0245 204.83C53.6485 203.126 54.5065 201.698 55.5985 200.546C56.6905 199.394 57.9565 198.524 59.3965 197.936C60.8365 197.348 62.3905 197.054 64.0585 197.054C65.7145 197.054 67.2625 197.348 68.7025 197.936C70.1545 198.524 71.4265 199.394 72.5185 200.546C73.6105 201.698 74.4625 203.126 75.0745 204.83C75.6865 206.522 75.9925 208.478 75.9925 210.698C75.9925 212.906 75.6805 214.868 75.0565 216.584C74.4445 218.288 73.5865 219.722 72.4825 220.886C71.3905 222.05 70.1185 222.932 68.6665 223.532C67.2265 224.132 65.6905 224.432 64.0585 224.432ZM64.0585 219.95C65.1745 219.95 66.2065 219.644 67.1545 219.032C68.1145 218.42 68.8825 217.436 69.4585 216.08C70.0345 214.712 70.3225 212.918 70.3225 210.698C70.3225 208.466 70.0285 206.678 69.4405 205.334C68.8645 203.99 68.1025 203.024 67.1545 202.436C66.2065 201.836 65.1745 201.536 64.0585 201.536C62.9425 201.536 61.9045 201.836 60.9445 202.436C59.9965 203.024 59.2345 203.99 58.6585 205.334C58.0825 206.678 57.7945 208.466 57.7945 210.698C57.7945 212.93 58.0825 214.724 58.6585 216.08C59.2345 217.436 59.9965 218.42 60.9445 219.032C61.9045 219.644 62.9425 219.95 64.0585 219.95ZM81.5722 224L77.6842 197.45H83.4262L86.2522 222.794L85.4422 222.758L89.9422 197.45H96.9082L101.39 222.758L100.58 222.794L103.406 197.45H109.148L105.26 224H96.6922L93.1462 201.32H93.7222L90.1402 224H81.5722ZM112.818 224.54C111.99 224.54 111.288 224.252 110.712 223.676C110.136 223.1 109.848 222.398 109.848 221.57C109.848 220.754 110.136 220.058 110.712 219.482C111.288 218.906 111.99 218.618 112.818 218.618C113.634 218.618 114.33 218.906 114.906 219.482C115.482 220.058 115.77 220.754 115.77 221.57C115.77 222.398 115.482 223.1 114.906 223.676C114.33 224.252 113.634 224.54 112.818 224.54ZM119.228 224L125.852 197.414H134.69L141.278 224H135.554L130.262 200.816H130.298L124.952 224H119.228ZM123.98 217.844V213.488H136.58V217.844H123.98ZM144.576 224V197.45H150.084V224H144.576Z" fill="#0FA958"/>
<path d="M82.9851 76.0147C76.9322 76.3809 75.1519 85.9011 75.1519 85.9011C75.1519 85.9011 73.0156 94.6893 84.7654 93.9566C96.5152 93.2239 92.2425 82.2394 92.2425 82.2394C92.2425 82.2394 89.038 75.6485 82.9851 76.0147Z" fill="#D9D9D9" stroke="black"/>
<path d="M84.7334 1.01843C7.35346 2.4602 1.23503 66.6189 1.23503 66.6189C1.23503 66.6189 -7.40298 178.803 80.0546 177.996C167.512 177.188 164.993 83.1993 164.993 83.1993C164.993 83.1993 162.113 -0.423338 84.7334 1.01843Z" fill="#0FA958" stroke="#0FA958"/>
<path d="M78.8828 25.0016C25.0043 24.6476 24.1547 81.787 24.1413 83.5892C24.1408 83.6461 24.1426 83.6118 24.1381 83.6686C23.9947 85.4767 18.9067 155.084 86.4458 146.22C154.178 137.332 144.633 74.4963 144.432 73.2211C144.426 73.1813 144.432 73.2152 144.423 73.1759C144.131 71.9285 132.891 25.3565 78.8828 25.0016Z" fill="#BCFAD0"/>
<path d="M81.857 48.5525C54.7143 53.7828 50.7799 78.9319 50.5572 80.5254C50.5497 80.579 50.5444 80.6145 50.5341 80.6676C50.2162 82.3197 44.2142 115.921 81.857 116.978C119.079 118.024 118.122 82.6536 118.007 80.1405C118.003 80.039 117.992 79.9621 117.969 79.8631C117.397 77.4267 108.891 43.343 81.857 48.5525Z" fill="#46F490" fill-opacity="0.5"/>
<path d="M83.7722 73.1519C76.0528 74.6395 75.1505 81.9779 75.1505 81.9779C75.1505 81.9779 73.1455 91.6953 83.7722 91.9939C94.399 92.2925 93.998 81.5881 93.998 81.5881C93.998 81.5881 91.4916 71.6644 83.7722 73.1519Z" fill="#D2FAE3"/>
</svg>
